<svg width="94" height="93" viewBox="0 0 94 93" fill="none" xmlns="http://www.w3.org/2000/svg">
<rect width="94" height="93" rx="5" fill="#6F2BFF"/>
<path d="M84.9488 8L78.1207 79.9916L47.4285 88L16.8208 80.0029L10 8H84.9488Z" fill="#6F2BFF"/>
<path d="M47.4746 81.8786L72.2754 75.4073L78.1104 13.8872H47.4746V81.8786Z" fill="#6F2BFF"/>
<path d="M47.4746 40.5923H25.6367L26.4777 49.423H47.4746V40.5923Z" fill="#EBEBEB"/>
<path d="M47.4749 22.7183H47.4424H23.9473L24.8002 31.5492H47.4749V22.7183Z" fill="#EBEBEB"/>
<path d="M26.8965 53.8386L28.211 67.7043L47.431 72.7261L47.4742 72.7148V63.527L47.433 63.5373L36.9833 60.8816L36.3153 53.8386H31.2376H26.8965Z" fill="#EBEBEB"/>
<path d="M58.9953 49.4229L57.9062 60.8759L47.4414 63.5343V72.7217L66.6767 67.7042L66.8178 66.2123L69.0226 42.9635L69.2516 40.5922L70.9455 22.7183H47.4414V31.5492H60.6627L59.809 40.5922H47.4414V49.4229H58.9953Z" fill="white"/>
</svg>
