<svg width="11293" height="7173" viewBox="0 0 11293 7173" fill="none" xmlns="http://www.w3.org/2000/svg">
<path d="M6452.06 992.231C6310.59 929.227 6156.44 899.871 6001.72 906.468C5846.99 913.066 5695.91 955.437 5560.31 1030.25C5274.97 1190.78 5080.88 1486.05 4787.43 1631.2C4454.47 1796.52 4061.34 1738.66 3689.86 1745.27C3318.38 1751.89 2890.03 1873.23 2753.31 2218.59C2637.59 2510.38 2778.77 2852.27 2680.07 3150.18C2597.41 3397 2371.42 3560.84 2196.34 3753.27C1906.04 4072.68 1744.02 4518.88 1812.96 4944.91C1881.9 5370.95 2200.8 5759.46 2619.57 5864.27C3074.7 5978.01 3576.45 5766.07 4015.38 5931.56C4310.81 6043.15 4520.27 6305.52 4787.27 6473.98C5236.61 6757.34 5856.74 6739.82 6289.38 6431.49C6510.58 6273.94 6681.53 6051.25 6911.65 5907.09C7506.81 5533.13 8336.57 5767.56 8941.31 5408.48C9422.57 5123.3 9635.83 4462.01 9413.47 3948.52C9250.47 3572.91 8898 3301.12 8752.19 2918.73C8629.02 2597.67 8666.55 2240.91 8628.52 1898.86C8590.5 1556.81 8431.96 1181.36 8103.79 1079.02C7887.22 1011.57 7655.6 1081.5 7430.77 1110.93C7078.13 1157.06 6774.27 1144 6452.72 992.231" fill="#E0E0E0"/>
<path d="M1280.13 61.3024C1001.23 152.725 703.814 375.414 639.669 662.413C575.524 949.412 652.233 1258.4 821.523 1497.95C951.135 1680.96 1159.11 1833.89 1381.8 1808.43C1547.12 1789.25 1687.31 1676.17 1847.51 1629.38C1995.14 1586.07 2154.84 1600.28 2302.48 1557.14C2611.79 1466.87 2805.55 1118.04 2763.23 798.473C2720.91 478.906 2475.07 207.778 2176.5 86.5966C1877.93 -34.5844 1536.38 -19.7054 1228.88 76.3467" fill="#E0E0E0"/>
<path d="M10462.9 3992.66L10470.9 4007.04C10479.7 4023.19 10493.1 4036.41 10509.4 4045.07L10523.8 4053L10509.4 4060.77C10493.1 4069.45 10479.7 4082.73 10470.9 4098.96L10462.9 4113.18L10455 4098.96C10446.1 4082.8 10432.7 4069.55 10416.5 4060.77L10402.1 4053L10416.5 4045.07C10432.7 4036.31 10446 4023.12 10455 4007.04L10462.9 3992.66Z" fill="#EBEBEB"/>
<path d="M1283.6 4694.45L1291.37 4708.67C1300.28 4724.83 1313.65 4738.09 1329.89 4746.86L1344.44 4754.63L1329.89 4762.56C1313.7 4771.32 1300.33 4784.51 1291.37 4800.59L1283.6 4814.97L1275.66 4800.59C1266.7 4784.51 1253.33 4771.32 1237.14 4762.56L1222.59 4754.63L1237.14 4746.86C1253.38 4738.09 1266.75 4724.83 1275.66 4708.67L1283.6 4694.45Z" fill="#EBEBEB"/>
<path d="M10778.2 5610.34L10791.6 5635.13C10806.8 5663.08 10829.8 5686.04 10857.7 5701.26L10882.5 5714.82L10857.7 5728.21C10829.8 5743.43 10806.8 5766.39 10791.6 5794.34L10778.2 5819.14L10764.6 5794.34C10749.4 5766.39 10726.5 5743.43 10698.5 5728.21L10673.7 5714.82L10698.5 5701.26C10726.5 5686.04 10749.4 5663.08 10764.6 5635.13L10778.2 5610.34Z" fill="#EBEBEB"/>
<path d="M942.373 6282.87L955.93 6307.66C971.149 6335.61 994.111 6358.57 1022.06 6373.79L1046.86 6387.35L1022.06 6400.9C994.111 6416.12 971.149 6439.09 955.93 6467.03L942.373 6491.67L928.982 6467.03C913.763 6439.09 890.802 6416.12 862.853 6400.9L838.055 6387.35L862.853 6373.79C890.802 6358.57 913.763 6335.61 928.982 6307.66L942.373 6282.87Z" fill="#EBEBEB"/>
<path d="M4725.6 638.441L4739.16 663.24C4754.38 691.188 4777.34 714.15 4805.29 729.369L4830.09 742.925L4805.29 756.481C4777.34 771.7 4754.38 794.662 4739.16 822.61L4725.6 847.243L4712.05 822.61C4696.83 794.662 4673.87 771.7 4645.92 756.481L4621.61 742.264L4646.25 728.707C4674.2 713.488 4697.16 690.527 4712.38 662.578L4725.6 638.441Z" fill="#EBEBEB"/>
<path d="M8266.47 2855.08L8279.86 2879.88C8295.08 2907.82 8318.04 2930.79 8345.99 2946.01L8370.79 2959.56L8345.99 2972.95C8318.04 2988.17 8295.08 3011.13 8279.86 3039.08L8266.47 3063.88L8252.91 3039.08C8237.69 3011.13 8214.73 2988.17 8186.78 2972.95L8161.99 2959.56L8186.78 2946.01C8214.73 2930.79 8237.69 2907.82 8252.91 2879.88L8266.47 2855.08Z" fill="#FAFAFA"/>
<path d="M3326.32 4204.93C3310.94 4266.76 4104.32 4922.6 5984.36 4787.69C7599.89 4671.97 8391.12 3932.15 8391.12 3932.15L3326.32 4204.93Z" fill="#6F2BFF" fill-opacity="0.78"/>
<path opacity="0.2" d="M3326.32 4204.93C3310.94 4266.76 4104.32 4922.6 5984.36 4787.69C7599.89 4671.97 8391.12 3932.15 8391.12 3932.15L3326.32 4204.93Z" fill="black"/>
<path d="M5860.6 4387.13C7263.73 4320.23 8393.97 4114.57 8385.07 3927.79C8376.16 3741.01 7231.48 3643.84 5828.35 3710.74C4425.22 3777.65 3294.98 3983.3 3303.88 4170.08C3312.79 4356.86 4457.47 4454.04 5860.6 4387.13Z" fill="#6F2BFF" fill-opacity="0.78"/>
<path d="M4681.13 3962.41C4681.13 3962.41 4607.07 2813.25 5746.47 2667.6C6885.86 2521.96 6987.37 3729.3 6987.37 3729.3C6987.37 3729.3 6249.87 4291.4 4681.13 3962.41Z" fill="#F5F5F5"/>
<path d="M5268.85 2941.05C5272.65 2946.5 5233.14 2977.09 5175.44 3031.97C5161.23 3045.7 5145.52 3060.74 5129.65 3077.93C5113.78 3095.13 5096.58 3113.48 5080.05 3133.15C5006.43 3219.69 4945.23 3316.06 4898.2 3419.49C4887.78 3443.63 4877.37 3466.27 4869.6 3488.1C4861.83 3509.92 4853.07 3530.42 4847.44 3549.27C4822.32 3624.65 4811.57 3673.42 4804.96 3672.43C4798.34 3671.44 4800 3621.02 4818.18 3540.17C4822.81 3520.17 4828.27 3498.35 4835.87 3475.53C4843.48 3452.72 4852.4 3428.42 4861.83 3402.96C4906.28 3293.29 4970.06 3192.5 5050.13 3105.38C5068.98 3085.87 5086.5 3067.02 5104.69 3050.99C5120.91 3035.64 5137.91 3021.13 5155.6 3007.51C5220.08 2957.58 5266.21 2936.25 5268.85 2941.05Z" fill="white"/>
<path d="M8193.4 3909.67C8191.43 3912.8 8189.1 3915.69 8186.45 3918.27C8179.14 3925.93 8171.24 3933.01 8162.81 3939.43C8131.1 3962.06 8096.37 3980.14 8059.65 3993.16C7820.76 4085.79 7569.75 4143.48 7314.38 4164.43C7264.78 4168.23 7225.77 4170.05 7198.65 4170.71H7167.08C7163.39 4170.96 7159.69 4170.96 7156 4170.71C7159.62 4169.82 7163.35 4169.37 7167.08 4169.39L7198.49 4167.24C7225.93 4165.42 7265.44 4162.78 7314.21 4158.15C7568.65 4133.99 7818.78 4076.4 8058.16 3986.87C8094.7 3974.49 8129.49 3957.43 8161.65 3936.12C8172.68 3927.86 8183.28 3919.03 8193.4 3909.67Z" fill="white"/>
<path d="M5543.62 4809.19C5538.08 4806.61 5532.86 4803.39 5528.08 4799.6C5514.32 4790.21 5501.23 4779.88 5488.89 4768.68C5470.33 4752.26 5453.09 4734.4 5437.31 4715.28C5417.99 4691.88 5400.68 4666.88 5385.57 4640.56C5370.71 4614.08 5358.05 4586.44 5347.71 4557.9C5339.46 4534.55 5332.94 4510.62 5328.2 4486.31C5324.93 4469.94 5322.73 4453.37 5321.59 4436.72C5320.91 4430.62 5320.91 4424.46 5321.59 4418.36C5323.24 4418.36 5325.06 4444.15 5334.32 4484.49C5339.8 4508.29 5346.81 4531.7 5355.31 4554.59C5366.02 4582.5 5378.67 4609.62 5393.17 4635.76C5408.16 4661.59 5425.01 4686.29 5443.6 4709.66C5458.92 4728.71 5475.48 4746.71 5493.19 4763.56C5523.28 4792.65 5544.61 4807.7 5543.62 4809.19Z" fill="#263238"/>
<path d="M5465.58 4546.65C5465.58 4547.81 5461.45 4549.8 5460.13 4555.91C5459.62 4557.49 5459.49 4559.16 5459.75 4560.8C5460.01 4562.44 5460.65 4563.99 5461.62 4565.34C5462.86 4566.55 5464.4 4567.42 5466.09 4567.85C5467.77 4568.28 5469.54 4568.26 5471.22 4567.79C5472.89 4567.32 5474.41 4566.42 5475.63 4565.17C5476.85 4563.93 5477.71 4562.39 5478.15 4560.71C5478.27 4559.05 5478.03 4557.39 5477.43 4555.85C5476.83 4554.3 5475.89 4552.91 5474.68 4551.78C5470.21 4547.15 5465.42 4547.98 5465.09 4546.65C5464.76 4545.33 5470.38 4541.86 5478.48 4546.65C5480.83 4548.16 5482.76 4550.24 5484.09 4552.7C5485.42 4555.16 5486.11 4557.91 5486.08 4560.71C5485.93 4564.31 5484.6 4567.76 5482.3 4570.53C5480 4573.31 5476.86 4575.26 5473.35 4576.08C5470.33 4576.92 5467.14 4576.87 5464.14 4575.96C5461.15 4575.05 5458.47 4573.31 5456.43 4570.94C5454.38 4568.56 5453.05 4565.66 5452.6 4562.56C5452.14 4559.46 5452.57 4556.29 5453.85 4553.43C5458.64 4544.67 5465.91 4545.5 5465.58 4546.65Z" fill="#263238"/>
<path d="M5539.65 4679.08C5539.65 4680.23 5535.68 4682.05 5534.19 4688.34C5533.73 4689.92 5533.63 4691.58 5533.89 4693.21C5534.14 4694.84 5534.76 4696.39 5535.68 4697.76C5536.86 4699.17 5538.45 4700.18 5540.22 4700.65C5542 4701.12 5543.87 4701.04 5545.6 4700.4C5547.41 4700.05 5549.06 4699.14 5550.33 4697.81C5551.61 4696.48 5552.44 4694.79 5552.71 4692.96C5552.81 4691.34 5552.55 4689.71 5551.95 4688.2C5551.35 4686.68 5550.42 4685.32 5549.24 4684.2C5544.77 4679.57 5539.98 4680.23 5539.65 4679.08C5539.32 4677.92 5544.94 4674.28 5553.04 4679.08C5555.39 4680.59 5557.32 4682.67 5558.65 4685.12C5559.98 4687.58 5560.67 4690.34 5560.64 4693.13C5560.22 4695.3 5559.37 4697.37 5558.14 4699.21C5556.9 4701.05 5555.31 4702.62 5553.46 4703.83C5551.61 4705.04 5549.53 4705.87 5547.35 4706.27C5545.17 4706.66 5542.93 4706.61 5540.77 4706.12C5538.61 4705.64 5536.57 4704.72 5534.77 4703.43C5532.97 4702.14 5531.45 4700.5 5530.3 4698.61C5529.15 4696.72 5528.38 4694.61 5528.06 4692.42C5527.73 4690.23 5527.85 4688 5528.41 4685.86C5532.7 4676.93 5539.98 4677.92 5539.65 4679.08Z" fill="#263238"/>
<path d="M3309.78 4158.97C3314.1 4157.06 3318.58 4155.57 3323.18 4154.51L3362.19 4143.43C3395.26 4134.01 3444.85 4121.28 3506.52 4106.57C3628.69 4077.14 3799.14 4042.09 3989.26 4014.81C4179.38 3987.54 4352.97 3974.14 4478.61 3968.19C4541.43 3965.22 4592.35 3963.73 4627.4 3963.56H4667.9C4672.63 3963.14 4677.39 3963.14 4682.12 3963.56C4677.48 3964.36 4672.78 3964.8 4668.07 3964.89L4627.57 3966.7C4592.52 3968.03 4541.6 3970.34 4478.78 3974.14C4353.3 3981.58 4180.21 3996.3 3990.25 4023.74C3800.3 4051.18 3630.18 4084.91 3507.68 4112.85C3446.34 4126.74 3396.91 4138.47 3362.85 4147.07L3323.51 4156.66C3319 4157.79 3314.41 4158.57 3309.78 4158.97V4158.97Z" fill="#263238"/>
<path d="M7005.06 4288.42C6997.64 4284.75 6990.56 4280.43 6983.9 4275.53L6927.53 4238.16C6879.91 4206.59 6813.62 4163.93 6738.89 4119.13C6664.17 4074.33 6595.23 4036.47 6544.97 4009.03L6485.45 3976.96C6477.96 3973.35 6470.78 3969.15 6463.96 3964.39C6471.88 3966.93 6479.57 3970.14 6486.94 3973.98C6501.49 3980.59 6522.32 3990.51 6547.78 4003.57C6598.87 4029.36 6668.47 4066.89 6743.36 4111.69C6818.25 4156.49 6884.21 4200.31 6931 4233.04C6954.31 4249.57 6973.15 4263.13 6985.88 4272.72C6992.72 4277.38 6999.14 4282.64 7005.06 4288.42V4288.42Z" fill="#263238"/>
<path d="M6541.83 4071.52C6542.82 4072.51 6537.86 4076.64 6538.19 4085.24C6538.28 4089.86 6540.18 4094.25 6543.48 4097.48C6545.66 4098.92 6548.16 4099.8 6550.76 4100.02C6553.36 4100.25 6555.98 4099.81 6558.37 4098.76C6560.76 4097.7 6562.84 4096.06 6564.43 4093.99C6566.02 4091.92 6567.06 4089.48 6567.45 4086.89C6567.45 4084.59 6566.96 4082.31 6566.02 4080.2C6565.08 4078.09 6563.71 4076.21 6562 4074.66C6555.88 4068.71 6549.6 4069.54 6549.43 4068.21C6549.27 4066.89 6556.21 4063.42 6565.97 4069.87C6568.68 4071.75 6570.95 4074.21 6572.6 4077.06C6574.26 4079.92 6575.27 4083.11 6575.56 4086.4C6575.54 4090.7 6574.24 4094.9 6571.83 4098.47C6569.41 4102.03 6565.99 4104.79 6562 4106.4C6558.16 4108.25 6553.86 4108.91 6549.65 4108.29C6545.43 4107.67 6541.5 4105.8 6538.36 4102.93C6536 4100.55 6534.22 4097.65 6533.15 4094.47C6532.09 4091.29 6531.78 4087.9 6532.24 4084.58C6533.73 4073.34 6541.66 4070.53 6541.83 4071.52Z" fill="#263238"/>
<path d="M4402.56 4007.54C4402.56 4008.53 4398.6 4012.66 4398.93 4021.09C4398.91 4023.39 4399.37 4025.66 4400.28 4027.77C4401.19 4029.88 4402.53 4031.77 4404.22 4033.33C4406.38 4034.82 4408.89 4035.74 4411.5 4035.98C4414.12 4036.23 4416.76 4035.8 4419.16 4034.74C4421.57 4033.68 4423.66 4032.02 4425.24 4029.92C4426.82 4027.82 4427.83 4025.35 4428.19 4022.75C4428.16 4020.47 4427.66 4018.22 4426.72 4016.14C4425.78 4014.07 4424.42 4012.21 4422.73 4010.68C4416.62 4004.56 4410.33 4005.55 4410.17 4004.23C4410 4002.91 4416.95 3999.44 4426.7 4005.89C4429.43 4007.75 4431.71 4010.2 4433.37 4013.06C4435.03 4015.93 4436.03 4019.12 4436.29 4022.42C4436.28 4026.7 4434.99 4030.89 4432.57 4034.43C4430.15 4037.97 4426.72 4040.69 4422.73 4042.26C4418.87 4044.12 4414.54 4044.78 4410.3 4044.16C4406.06 4043.55 4402.09 4041.67 4398.93 4038.78C4396.61 4036.37 4394.88 4033.47 4393.85 4030.29C4392.82 4027.11 4392.52 4023.74 4392.97 4020.43C4394.46 4009.36 4402.4 4006.38 4402.56 4007.54Z" fill="#263238"/>
<path d="M4007.94 4057.3C4007.94 4058.29 4003.97 4062.26 4004.14 4070.86C4004.19 4073.16 4004.7 4075.42 4005.64 4077.52C4006.57 4079.62 4007.92 4081.52 4009.59 4083.09C4011.69 4084.7 4014.19 4085.69 4016.82 4085.95C4019.45 4086.21 4022.1 4085.74 4024.47 4084.58C4026.95 4083.62 4029.1 4081.97 4030.68 4079.84C4032.26 4077.7 4033.2 4075.16 4033.4 4072.51C4033.41 4070.22 4032.95 4067.94 4032.04 4065.84C4031.13 4063.73 4029.79 4061.84 4028.11 4060.28C4021.99 4054.33 4015.71 4055.15 4015.54 4053.83C4015.38 4052.51 4022.32 4049.2 4032.08 4055.65C4034.8 4057.5 4037.07 4059.96 4038.7 4062.82C4040.33 4065.69 4041.29 4068.89 4041.5 4072.18C4041.58 4076.46 4040.33 4080.67 4037.94 4084.22C4035.54 4087.77 4032.11 4090.49 4028.11 4092.02C4024.25 4093.88 4019.92 4094.55 4015.67 4093.93C4011.43 4093.31 4007.47 4091.43 4004.3 4088.55C4001.99 4086.14 4000.25 4083.23 3999.22 4080.05C3998.19 4076.88 3997.89 4073.51 3998.35 4070.2C4000 4059.12 4007.77 4056.14 4007.94 4057.3Z" fill="#263238"/>
<path d="M3557.93 4126.74C3558.76 4127.73 3553.8 4131.86 3554.13 4140.46C3554.14 4142.77 3554.62 4145.05 3555.56 4147.15C3556.5 4149.26 3557.87 4151.15 3559.59 4152.69C3561.68 4154.31 3564.2 4155.29 3566.83 4155.52C3569.47 4155.76 3572.12 4155.23 3574.47 4154.01C3576.94 4153.1 3579.1 4151.49 3580.68 4149.38C3582.27 4147.27 3583.21 4144.74 3583.39 4142.11C3583.31 4137.5 3581.41 4133.1 3578.1 4129.88C3571.99 4123.93 3565.54 4124.75 3565.54 4123.43C3565.54 4122.11 3572.32 4118.64 3582.07 4125.25C3584.79 4127.11 3587.05 4129.57 3588.68 4132.43C3590.31 4135.3 3591.27 4138.49 3591.49 4141.78C3591.5 4146.05 3590.23 4150.22 3587.84 4153.76C3585.46 4157.29 3582.06 4160.03 3578.1 4161.62C3574.24 4163.48 3569.91 4164.15 3565.67 4163.53C3561.43 4162.91 3557.47 4161.03 3554.3 4158.15C3552 4155.72 3550.27 4152.82 3549.21 4149.65C3548.16 4146.48 3547.8 4143.12 3548.18 4139.8C3549.83 4128.56 3557.77 4125.74 3557.93 4126.74Z" fill="#263238"/>
<path d="M6722.03 4193.2C6723.02 4194.19 6718.06 4198.32 6718.39 4206.75C6718.38 4209.05 6718.84 4211.32 6719.75 4213.43C6720.66 4215.53 6722 4217.43 6723.68 4218.99C6725.76 4220.63 6728.27 4221.64 6730.91 4221.9C6733.54 4222.17 6736.2 4221.67 6738.56 4220.47C6741.06 4219.52 6743.24 4217.88 6744.85 4215.75C6746.45 4213.61 6747.43 4211.07 6747.66 4208.41C6747.63 4206.13 6747.13 4203.88 6746.19 4201.8C6745.25 4199.72 6743.89 4197.86 6742.2 4196.34C6736.08 4190.22 6729.8 4191.21 6729.64 4189.89C6729.47 4188.57 6736.41 4185.1 6746.17 4191.54C6748.9 4193.41 6751.18 4195.86 6752.84 4198.72C6754.5 4201.58 6755.49 4204.78 6755.76 4208.08C6755.97 4211.14 6755.53 4214.22 6754.47 4217.11C6753.4 4220 6751.74 4222.62 6749.59 4224.82C6747.44 4227.02 6744.85 4228.74 6741.99 4229.87C6739.13 4231 6736.06 4231.51 6732.99 4231.37C6729.91 4231.23 6726.91 4230.44 6724.16 4229.06C6721.41 4227.67 6718.99 4225.72 6717.05 4223.33C6715.11 4220.95 6713.7 4218.18 6712.9 4215.21C6712.11 4212.23 6711.95 4209.13 6712.44 4206.09C6713.93 4195.01 6721.87 4192.04 6722.03 4193.2Z" fill="#263238"/>
<g opacity="0.2">
<path opacity="0.2" d="M5650.58 2880.54C5640.44 2880.53 5630.6 2883.98 5622.7 2890.32C5614.79 2896.67 5609.28 2905.52 5607.1 2915.42C5605.63 2925.68 5607.63 2936.13 5612.78 2945.11C5617.94 2954.1 5625.94 2961.11 5635.53 2965.02C5645.4 2968.35 5656.1 2968.24 5665.9 2964.7C5675.69 2961.15 5683.98 2954.39 5689.43 2945.51C5694.33 2936.33 5695.91 2925.73 5693.89 2915.51C5691.87 2905.3 5686.38 2896.1 5678.35 2889.47C5673.19 2885.54 5667.23 2882.79 5660.88 2881.42C5654.54 2880.05 5647.98 2880.09 5641.65 2881.53" fill="white"/>
</g>
<g opacity="0.2">
<path opacity="0.2" d="M5584.45 2983.37C5580.6 2984.8 5577.38 2987.54 5575.34 2991.11C5573.31 2994.68 5572.59 2998.86 5573.32 3002.9C5574.05 3006.94 5576.18 3010.6 5579.33 3013.24C5582.48 3015.87 5586.46 3017.32 5590.57 3017.32C5594.68 3017.32 5598.65 3015.87 5601.81 3013.24C5604.96 3010.6 5607.08 3006.94 5607.81 3002.9C5608.54 2998.86 5607.83 2994.68 5605.79 2991.11C5603.76 2987.54 5600.53 2984.8 5596.68 2983.37" fill="white"/>
</g>
<path d="M3898.99 2992.29L3906.93 3006.68C3915.97 3022.74 3929.31 3035.96 3945.45 3044.87L3959.83 3052.64L3945.45 3060.57C3929.26 3069.33 3915.89 3082.52 3906.93 3098.6L3898.99 3112.98L3891.06 3098.6C3882.2 3082.49 3868.88 3069.29 3852.7 3060.57L3838.15 3052.64L3852.7 3044.87C3868.86 3036.04 3882.16 3022.79 3891.06 3006.68L3898.99 2992.29Z" fill="#FAFAFA"/>
<path d="M5140.73 5298.04L5148.66 5312.42C5157.52 5328.53 5170.83 5341.73 5187.02 5350.45L5201.56 5358.38L5187.02 5366.15C5170.91 5374.93 5157.7 5388.2 5148.99 5404.34L5141.06 5418.56L5133.12 5404.34C5124.21 5388.18 5110.84 5374.93 5094.6 5366.15L5080.22 5358.38L5094.6 5350.45C5110.79 5341.69 5124.15 5328.5 5133.12 5312.42L5140.73 5298.04Z" fill="#EBEBEB"/>
<path d="M2675.44 6740.81L2683.38 6755.19C2692.35 6771.27 2705.71 6784.46 2721.9 6793.21L2736.45 6801.15L2721.9 6808.92C2705.66 6817.69 2692.29 6830.95 2683.38 6847.11L2675.44 6861.33L2667.51 6847.11C2658.71 6830.92 2645.38 6817.65 2629.15 6808.92L2614.61 6801.15L2629.15 6793.21C2645.33 6784.5 2658.65 6771.29 2667.51 6755.19L2675.44 6740.81Z" fill="#EBEBEB"/>
<path d="M7996.66 347.309L8004.6 361.692C8013.41 377.756 8026.6 390.996 8042.62 399.881L8057.01 407.651L8042.62 415.421C8026.6 424.306 8013.41 437.546 8004.6 453.611L7996.66 467.994L7988.89 453.611C7980.2 437.57 7967.13 424.326 7951.2 415.421L7936.98 407.651L7951.2 399.881C7967.08 391.065 7980.15 377.941 7988.89 362.022L7996.66 347.309Z" fill="#455A64"/>
<path d="M5805.98 5934.7L5813.92 5949.08C5822.69 5965.13 5835.89 5978.33 5851.94 5987.1L5866.32 5995.04L5851.94 6002.81C5835.85 6011.6 5822.64 6024.87 5813.92 6041L5805.98 6055.22L5798.21 6041C5789.47 6024.82 5776.2 6011.55 5760.02 6002.81L5745.64 5995.04L5760.02 5987.1C5776.15 5978.38 5789.42 5965.17 5798.21 5949.08L5805.98 5934.7Z" fill="#455A64"/>
<path d="M1230.03 1261.21L1237.97 1275.59C1246.8 1291.7 1260.05 1304.95 1276.16 1313.78L1290.38 1321.55L1276.16 1329.32C1260.05 1338.15 1246.8 1351.4 1237.97 1367.51L1230.03 1381.89L1222.26 1367.51C1213.43 1351.4 1200.18 1338.15 1184.07 1329.32L1169.86 1321.55L1184.07 1313.78C1200.18 1304.95 1213.43 1291.7 1222.26 1275.59L1230.03 1261.21Z" fill="#455A64"/>
<path d="M8749.54 6383.54L8757.48 6397.93C8766.29 6413.99 8779.47 6427.23 8795.5 6436.12L8809.88 6443.89L8795.5 6451.82C8779.45 6460.6 8766.25 6473.79 8757.48 6489.85L8749.54 6504.23L8741.77 6489.85C8732.97 6473.75 8719.71 6460.55 8703.58 6451.82L8689.36 6443.89L8703.58 6436.12C8719.69 6427.29 8732.94 6414.04 8741.77 6397.93L8749.54 6383.54Z" fill="#455A64"/>
<path d="M7918.14 4857.29L7925.91 4871.68C7934.79 4887.7 7948.03 4900.88 7964.1 4909.7L7978.48 4917.64L7964.1 4925.41C7947.99 4934.24 7934.74 4947.49 7925.91 4963.59L7918.14 4977.98L7910.2 4963.59C7901.47 4947.46 7888.27 4934.2 7872.18 4925.41L7857.79 4917.64L7872.18 4909.7C7888.23 4900.93 7901.43 4887.73 7910.2 4871.68L7918.14 4857.29Z" fill="#455A64"/>
<path d="M2614.61 3943.56L2622.54 3957.94C2631.36 3974.01 2644.54 3987.25 2660.57 3996.13L2674.95 4003.9L2660.57 4011.67C2644.54 4020.56 2631.36 4033.8 2622.54 4049.86L2614.61 4064.24L2606.84 4049.86C2597.88 4033.84 2584.66 4020.62 2568.65 4011.67L2554.26 4003.9L2568.65 3996.13C2584.66 3987.18 2597.88 3973.96 2606.84 3957.94L2614.61 3943.56Z" fill="#455A64"/>
<path d="M9659.8 3560.67L9663.77 3567.78C9668.16 3575.81 9674.76 3582.41 9682.78 3586.79L9690.06 3590.76L9682.78 3594.73C9674.76 3599.11 9668.16 3605.71 9663.77 3613.74L9659.8 3621.01L9656 3613.74C9651.6 3605.67 9644.93 3599.06 9636.82 3594.73L9629.71 3590.76L9636.82 3586.79C9644.93 3582.46 9651.6 3575.85 9656 3567.78L9659.8 3560.67Z" fill="#455A64"/>
<path d="M4061.34 5267.95L4064.98 5275.23C4069.03 5283.44 4075.42 5290.28 4083.33 5294.9L4090.27 5299.2L4083 5302.84C4074.82 5306.94 4067.99 5313.31 4063.32 5321.19L4059.02 5328.13L4055.39 5320.86C4051.34 5312.59 4044.96 5305.7 4037.04 5301.02L4030.09 5296.88L4037.37 5293.25C4045.59 5289.14 4052.47 5282.78 4057.21 5274.9L4061.34 5267.95Z" fill="#455A64"/>
<path d="M9047.28 1752.54L9051.25 1759.65C9055.54 1767.75 9062.17 1774.37 9070.26 1778.67L9077.37 1782.63L9070.26 1786.6C9062.17 1790.89 9055.54 1797.52 9051.25 1805.61L9047.28 1812.72L9043.32 1805.61C9039.02 1797.52 9032.4 1790.89 9024.3 1786.6L9017.2 1782.63L9024.3 1778.67C9032.4 1774.37 9039.02 1767.75 9043.32 1759.65L9047.28 1752.54Z" fill="#455A64"/>
<path d="M4198.39 1954.24L4202.36 1961.51C4206.82 1969.48 4213.4 1976.06 4221.37 1980.52L4228.64 1984.49L4221.37 1988.29C4213.38 1992.81 4206.8 1999.44 4202.36 2007.47L4198.39 2015.24L4194.59 2008.13C4190.14 2000.05 4183.49 1993.4 4175.41 1988.96L4168.3 1985.15L4175.41 1981.19C4183.44 1976.74 4190.08 1970.16 4194.59 1962.17L4198.39 1954.24Z" fill="#455A64"/>
<path d="M2080.12 629.348L2083.92 636.622C2088.43 644.611 2095.07 651.192 2103.1 655.634L2110.21 659.602L2103.1 663.404C2095.02 667.847 2088.37 674.499 2083.92 682.581L2080.12 689.69L2076.15 682.581C2071.71 674.553 2065.13 667.915 2057.14 663.404L2049.2 659.602L2056.48 655.634C2064.45 651.168 2071.02 644.589 2075.49 636.622L2080.12 629.348Z" fill="#455A64"/>
<path d="M6176.3 1157.22L6189.69 1181.85C6204.91 1209.8 6227.87 1232.76 6255.82 1247.98L6280.62 1261.54L6255.82 1275.1C6227.87 1290.31 6204.91 1313.28 6189.69 1341.22L6176.3 1366.02L6162.75 1341.22C6147.53 1313.28 6124.57 1290.31 6096.62 1275.1L6071.82 1261.54L6096.62 1247.98C6124.57 1232.76 6147.53 1209.8 6162.75 1181.85L6176.3 1157.22Z" fill="#455A64"/>
<path d="M10298.8 5021.62L10312.3 5046.42C10327.5 5074.37 10350.5 5097.33 10378.5 5112.55L10403.1 5126.11L10378.5 5139.66C10350.5 5154.88 10327.5 5177.84 10312.3 5205.79L10298.8 5230.42L10285.5 5205.96C10270.3 5178.01 10247.4 5155.05 10219.4 5139.83L10194.6 5126.27L10219.4 5112.72C10247.4 5097.5 10270.3 5074.53 10285.5 5046.59L10298.8 5021.62Z" fill="#455A64"/>
<path d="M1922.73 5951.23L1936.12 5976.03C1951.34 6003.97 1974.3 6026.94 2002.25 6042.16L2027.05 6055.55L2002.25 6069.1C1974.3 6084.32 1951.34 6107.28 1936.12 6135.23L1922.73 6160.03L1909.18 6135.23C1893.96 6107.28 1871 6084.32 1843.05 6069.1L1818.25 6055.55L1843.05 6042.16C1871 6026.94 1893.96 6003.97 1909.18 5976.03L1922.73 5951.23Z" fill="#455A64"/>
<path d="M10138.1 937.839C10045.8 884.275 9926.63 931.722 9843.64 999.008C9760.65 1066.29 9690.88 1154.08 9592.35 1195.25C9529.53 1221.53 9457.78 1228.31 9402.23 1266.83C9311.64 1330.64 9295.76 1459.26 9311.47 1568.87C9327.18 1678.48 9365.53 1787.43 9352.14 1897.37C9342.05 1977.88 9304.36 2058.56 9324.86 2137.25C9353.46 2247.35 9480.1 2299.76 9541.76 2395.48C9586.07 2464.09 9598.14 2556.67 9664.27 2604.78C9740.81 2660.66 9847.28 2628.09 9941.68 2636.69C10057.4 2647.1 10157.4 2721.66 10268 2759.19C10356.9 2788.15 10451.8 2793.34 10543.3 2774.25C10634.8 2755.17 10719.7 2712.48 10789.6 2650.41C10859.9 2586.43 10911.5 2504.76 10980.6 2439.62C11039.6 2383.91 11111.2 2340.43 11159.6 2275.13C11208 2209.83 11227.4 2133.78 11247.4 2057.73C11276.7 1946.63 11306.1 1831.07 11284.8 1718.16C11250.5 1537.96 11096.9 1406.86 11016.9 1241.87C10985.7 1177.56 10962.9 1103.99 10905 1062C10843.7 1017.36 10760.7 1021.16 10688.9 996.859C10585.9 962.141 10508.1 870.222 10402.8 843.275C10354.2 831.738 10303.4 834.549 10256.4 851.366C10209.5 868.184 10168.4 898.283 10138.2 938.004" fill="#6F2BFF" fill-opacity="0.78"/>
<g opacity="0.2">
<path opacity="0.2" d="M10138.1 937.839C10045.8 884.275 9926.63 931.722 9843.64 999.008C9760.65 1066.29 9690.88 1154.08 9592.35 1195.25C9529.53 1221.53 9457.78 1228.31 9402.23 1266.83C9311.64 1330.64 9295.76 1459.26 9311.47 1568.87C9327.18 1678.48 9365.53 1787.43 9352.14 1897.37C9342.05 1977.88 9304.36 2058.56 9324.86 2137.25C9353.46 2247.35 9480.1 2299.76 9541.76 2395.48C9586.07 2464.09 9598.14 2556.67 9664.27 2604.78C9740.81 2660.66 9847.28 2628.09 9941.68 2636.69C10057.4 2647.1 10157.4 2721.66 10268 2759.19C10356.9 2788.15 10451.8 2793.34 10543.3 2774.25C10634.8 2755.17 10719.7 2712.48 10789.6 2650.41C10859.9 2586.43 10911.5 2504.76 10980.6 2439.62C11039.6 2383.91 11111.2 2340.43 11159.6 2275.13C11208 2209.83 11227.4 2133.78 11247.4 2057.73C11276.7 1946.63 11306.1 1831.07 11284.8 1718.16C11250.5 1537.96 11096.9 1406.86 11016.9 1241.87C10985.7 1177.56 10962.9 1103.99 10905 1062C10843.7 1017.36 10760.7 1021.16 10688.9 996.859C10585.9 962.141 10508.1 870.222 10402.8 843.275C10354.2 831.738 10303.4 834.549 10256.4 851.366C10209.5 868.184 10168.4 898.283 10138.2 938.004" fill="white"/>
</g>
<path d="M10316.9 2589.79C10749.9 2574.44 11088.5 2211.01 11073.1 1778.04C11057.8 1345.07 10694.3 1006.52 10261.4 1021.87C9828.39 1037.21 9489.84 1400.65 9505.18 1833.62C9520.53 2266.58 9883.96 2605.13 10316.9 2589.79Z" fill="#6F2BFF" fill-opacity="0.78"/>
<path opacity="0.4" d="M10057.9 1935.39C10042.3 1955.33 10021.1 1970.19 9997.09 1978.1C9973.04 1986.01 9947.19 1986.61 9922.8 1979.82C9898.42 1973.03 9876.59 1959.16 9860.09 1939.97C9843.59 1920.77 9833.15 1897.11 9830.09 1871.98C9827.04 1846.86 9831.51 1821.39 9842.93 1798.8C9854.35 1776.21 9872.22 1757.51 9894.27 1745.08C9916.32 1732.65 9941.57 1727.04 9966.81 1728.95C9992.05 1730.87 10016.2 1740.23 10036.1 1755.85C10062.8 1776.78 10080 1807.44 10084.1 1841.11C10088.2 1874.77 10078.8 1908.68 10057.9 1935.39V1935.39Z" fill="black"/>
<path opacity="0.4" d="M10142.9 1532.83C10133.8 1544.41 10121.5 1553.04 10107.5 1557.63C10093.5 1562.22 10078.5 1562.56 10064.3 1558.62C10050.2 1554.67 10037.5 1546.61 10027.9 1535.45C10018.3 1524.3 10012.2 1510.55 10010.5 1495.95C10008.7 1481.34 10011.3 1466.54 10017.9 1453.41C10024.5 1440.28 10034.9 1429.41 10047.7 1422.17C10060.5 1414.94 10075.2 1411.66 10089.9 1412.76C10104.5 1413.86 10118.6 1419.29 10130.1 1428.35C10137.8 1434.37 10144.3 1441.85 10149.1 1450.36C10153.9 1458.87 10157 1468.25 10158.2 1477.95C10159.3 1487.66 10158.6 1497.5 10156 1506.91C10153.4 1516.33 10148.9 1525.14 10142.9 1532.83V1532.83Z" fill="black"/>
<path d="M3915.42 7156.72C4111.54 7148.26 4263.67 6982.42 4255.21 6786.29C4246.75 6590.17 4080.91 6438.04 3884.78 6446.5C3688.66 6454.96 3536.53 6620.81 3544.99 6816.93C3553.45 7013.05 3719.3 7165.18 3915.42 7156.72Z" fill="#6F2BFF" fill-opacity="0.78"/>
<path opacity="0.2" d="M3750.2 6704.44C3738.79 6705.71 3727.26 6703.57 3717.06 6698.28C3706.87 6693 3698.47 6684.81 3692.94 6674.75C3687.4 6664.69 3684.97 6653.22 3685.95 6641.78C3686.94 6630.34 3691.3 6619.45 3698.48 6610.49C3705.66 6601.53 3715.33 6594.9 3726.28 6591.43C3737.23 6587.97 3748.96 6587.84 3759.98 6591.05C3771.01 6594.26 3780.83 6600.67 3788.22 6609.46C3795.6 6618.25 3800.2 6629.04 3801.45 6640.46C3803.12 6655.73 3798.67 6671.05 3789.06 6683.04C3779.45 6695.04 3765.48 6702.73 3750.2 6704.44V6704.44Z" fill="black"/>
<path opacity="0.2" d="M3868.9 6571.52C3862.45 6572.08 3855.97 6570.73 3850.27 6567.64C3844.58 6564.55 3839.92 6559.86 3836.87 6554.14C3833.82 6548.42 3832.51 6541.94 3833.12 6535.48C3833.72 6529.03 3836.21 6522.9 3840.27 6517.85C3844.34 6512.8 3849.79 6509.06 3855.96 6507.08C3862.14 6505.11 3868.75 6504.99 3874.99 6506.75C3881.23 6508.5 3886.81 6512.05 3891.05 6516.95C3895.29 6521.85 3897.99 6527.89 3898.83 6534.32C3899.4 6538.74 3899.08 6543.24 3897.87 6547.53C3896.66 6551.82 3894.6 6555.83 3891.8 6559.3C3889.01 6562.78 3885.54 6565.65 3881.6 6567.75C3877.67 6569.85 3873.35 6571.13 3868.9 6571.52Z" fill="black"/>
<path opacity="0.2" d="M3977.69 6602.6C3977.41 6600.16 3977.86 6597.7 3978.98 6595.52C3980.1 6593.34 3981.85 6591.54 3983.99 6590.35C3986.14 6589.16 3988.58 6588.63 3991.03 6588.83C3993.47 6589.03 3995.8 6589.96 3997.72 6591.48C3999.64 6593.01 4001.07 6595.07 4001.81 6597.41C4002.56 6599.74 4002.6 6602.25 4001.92 6604.61C4001.25 6606.96 3999.89 6609.07 3998.02 6610.65C3996.14 6612.24 3993.84 6613.23 3991.41 6613.51C3989.79 6613.72 3988.14 6613.6 3986.57 6613.16C3984.99 6612.72 3983.52 6611.97 3982.24 6610.95C3980.97 6609.93 3979.9 6608.67 3979.12 6607.23C3978.34 6605.8 3977.85 6604.22 3977.69 6602.6V6602.6Z" fill="black"/>
<path d="M1129.52 3844.2C1509.99 3844.2 1818.41 3535.77 1818.41 3155.3C1818.41 2774.84 1509.99 2466.41 1129.52 2466.41C749.051 2466.41 440.621 2774.84 440.621 3155.3C440.621 3535.77 749.051 3844.2 1129.52 3844.2Z" fill="#6F2BFF" fill-opacity="0.78"/>
<path opacity="0.2" d="M894.926 3396.67C894.926 3418.91 888.328 3440.66 875.968 3459.15C863.608 3477.64 846.041 3492.05 825.49 3500.55C804.938 3509.05 782.326 3511.27 760.514 3506.92C738.703 3502.57 718.672 3491.85 702.956 3476.11C687.241 3460.37 676.547 3440.32 672.228 3418.5C667.909 3396.69 670.159 3374.08 678.693 3353.54C687.227 3333 701.662 3315.45 720.171 3303.12C738.68 3290.79 760.431 3284.22 782.672 3284.25C797.427 3284.25 812.038 3287.16 825.668 3292.81C839.298 3298.47 851.68 3306.75 862.106 3317.19C872.532 3327.63 880.797 3340.03 886.429 3353.66C892.06 3367.3 894.948 3381.92 894.926 3396.67V3396.67Z" fill="white"/>
<path opacity="0.2" d="M735.556 3072.31C735.72 3085.42 731.981 3098.29 724.815 3109.27C717.649 3120.26 707.379 3128.86 695.311 3133.99C683.243 3139.13 669.922 3140.55 657.04 3138.1C644.158 3135.64 632.298 3129.41 622.967 3120.19C613.636 3110.98 607.255 3099.2 604.636 3086.35C602.016 3073.5 603.277 3060.16 608.257 3048.03C613.237 3035.9 621.711 3025.52 632.603 3018.21C643.495 3010.91 656.313 3007.01 669.427 3007.01C686.823 3007.01 703.519 3013.86 715.897 3026.09C728.275 3038.31 735.338 3054.92 735.556 3072.31Z" fill="white"/>
<path d="M462.113 3322.94C465.089 3334.84 -127.591 3903.55 25.1669 4024.57C177.924 4145.58 820.697 3834.94 1368.57 3392.54C1916.45 2950.14 2416.05 2412.02 2279 2270.5C2141.95 2128.98 1457.52 2549.4 1457.52 2549.4L1540.18 2601.47C1540.18 2601.47 1953.48 2335.97 2085.74 2438.96C2218 2541.96 1843.54 2944.68 1316.66 3329.22C789.781 3713.76 279.267 3983.73 200.243 3878.42C121.219 3773.11 494.02 3421.64 494.02 3421.64L462.113 3322.94Z" fill="#6F2BFF" fill-opacity="0.78"/>
<path opacity="0.4" d="M462.113 3322.94C465.089 3334.84 -127.591 3903.55 25.1669 4024.57C177.924 4145.58 820.697 3834.94 1368.57 3392.54C1916.45 2950.14 2416.05 2412.02 2279 2270.5C2141.95 2128.98 1457.52 2549.4 1457.52 2549.4L1540.18 2601.47C1540.18 2601.47 1953.48 2335.97 2085.74 2438.96C2218 2541.96 1843.54 2944.68 1316.66 3329.22C789.781 3713.76 279.267 3983.73 200.243 3878.42C121.219 3773.11 494.02 3421.64 494.02 3421.64L462.113 3322.94Z" fill="black"/>
<path d="M7853.41 2630.28C7944.02 2535.52 7940.67 2385.25 7845.91 2294.63C7751.15 2204.01 7600.87 2207.37 7510.25 2302.13C7419.64 2396.89 7422.99 2547.16 7517.75 2637.78C7612.51 2728.4 7762.79 2725.04 7853.41 2630.28Z" fill="#455A64"/>
<path d="M7759.26 2375.48C7759.46 2367.84 7761.92 2360.43 7766.32 2354.18C7770.73 2347.94 7776.88 2343.14 7784.01 2340.39C7791.15 2337.64 7798.93 2337.06 7806.39 2338.73C7813.85 2340.4 7820.65 2344.24 7825.92 2349.77C7831.2 2355.3 7834.72 2362.27 7836.04 2369.8C7837.36 2377.33 7836.42 2385.08 7833.34 2392.08C7830.25 2399.07 7825.17 2405 7818.72 2409.1C7812.28 2413.21 7804.76 2415.32 7797.12 2415.16C7792.02 2415.05 7787 2413.94 7782.34 2411.88C7777.67 2409.83 7773.46 2406.87 7769.94 2403.19C7766.43 2399.5 7763.67 2395.15 7761.84 2390.4C7760.01 2385.64 7759.13 2380.57 7759.26 2375.48V2375.48Z" fill="#263238"/>
<path d="M7836.63 2465.91C7836.7 2461.42 7838.1 2457.05 7840.66 2453.35C7843.22 2449.66 7846.82 2446.81 7851 2445.17C7855.18 2443.53 7859.76 2443.17 7864.15 2444.13C7868.53 2445.1 7872.54 2447.35 7875.64 2450.59C7878.75 2453.84 7880.82 2457.94 7881.59 2462.36C7882.36 2466.79 7881.8 2471.34 7879.97 2475.45C7878.15 2479.56 7875.14 2483.03 7871.34 2485.42C7867.54 2487.81 7863.11 2489.02 7858.62 2488.89C7852.67 2488.72 7847.03 2486.21 7842.91 2481.91C7838.8 2477.61 7836.54 2471.86 7836.63 2465.91V2465.91Z" fill="#263238"/>
<path d="M7806.54 2535.02C7808.45 2535.4 7810.17 2536.43 7811.41 2537.94C7812.64 2539.45 7813.31 2541.33 7813.31 2543.28C7813.31 2545.23 7812.64 2547.12 7811.41 2548.62C7810.17 2550.13 7808.45 2551.16 7806.54 2551.55C7804.34 2551.46 7802.25 2550.51 7800.74 2548.91C7799.22 2547.3 7798.4 2545.16 7798.44 2542.95C7798.6 2540.87 7799.51 2538.92 7801 2537.46C7802.49 2536 7804.46 2535.13 7806.54 2535.02V2535.02Z" fill="#263238"/>
</svg>
