<svg width="30" height="30" viewBox="0 0 30 30" fill="none" xmlns="http://www.w3.org/2000/svg">
<path fill-rule="evenodd" clip-rule="evenodd" d="M14.9988 0.369629C6.71671 0.369629 0 7.08543 0 15.3703C0 21.9968 4.29762 27.6194 10.2583 29.6039C11.0088 29.7412 11.2823 29.2779 11.2823 28.8801C11.2823 28.5237 11.2692 27.5808 11.2614 26.3293C7.08901 27.2354 6.20869 24.3182 6.20869 24.3182C5.52634 22.5852 4.54286 22.1239 4.54286 22.1239C3.18092 21.1938 4.64597 21.2122 4.64597 21.2122C6.15155 21.3181 6.94349 22.7583 6.94349 22.7583C8.28149 25.0503 10.4547 24.3882 11.3092 24.0042C11.4455 23.0355 11.8332 22.3743 12.2614 21.9995C8.9307 21.6201 5.42869 20.3337 5.42869 14.5858C5.42869 12.9476 6.01344 11.6096 6.97296 10.5607C6.81817 10.1813 6.3035 8.65635 7.12044 6.59088C7.12044 6.59088 8.37922 6.18758 11.2449 8.12783C12.4411 7.79539 13.7248 7.62964 15.0002 7.62319C16.2746 7.62841 17.5573 7.79546 18.7554 8.12783C21.6192 6.18758 22.8762 6.59088 22.8762 6.59088C23.6948 8.65635 23.1801 10.1813 23.0263 10.5607C23.9876 11.6096 24.5678 12.9476 24.5678 14.5858C24.5678 20.3484 21.0602 21.6164 17.7194 21.9875C18.2572 22.4507 18.7369 23.3661 18.7369 24.7658C18.7369 26.7704 18.7187 28.3884 18.7187 28.8801C18.7187 29.2816 18.9894 29.7485 19.75 29.6021C25.7061 27.614 30 21.9958 30 15.3703C30 7.08543 23.2833 0.369629 14.9984 0.369629" fill="black"/>
</svg>
