<svg width="30" height="30" viewBox="0 0 30 30" fill="none" xmlns="http://www.w3.org/2000/svg">
<path fill-rule="evenodd" clip-rule="evenodd" d="M14.9988 0.369385C6.71671 0.369385 0 7.08519 0 15.3701C0 21.9965 4.29762 27.6192 10.2583 29.6036C11.0088 29.7409 11.2823 29.2777 11.2823 28.8799C11.2823 28.5235 11.2692 27.5805 11.2614 26.3291C7.08901 27.2352 6.20869 24.318 6.20869 24.318C5.52634 22.5849 4.54286 22.1236 4.54286 22.1236C3.18092 21.1935 4.64597 21.2119 4.64597 21.2119C6.15155 21.3179 6.94349 22.758 6.94349 22.758C8.28149 25.05 10.4547 24.388 11.3092 24.004C11.4455 23.0352 11.8332 22.374 12.2614 21.9993C8.9307 21.6199 5.42869 20.3335 5.42869 14.5855C5.42869 12.9473 6.01344 11.6093 6.97296 10.5605C6.81817 10.1811 6.3035 8.6561 7.12044 6.59064C7.12044 6.59064 8.37922 6.18734 11.2449 8.12759C12.4411 7.79514 13.7248 7.62939 15.0002 7.62294C16.2746 7.62817 17.5573 7.79522 18.7554 8.12759C21.6192 6.18734 22.8762 6.59064 22.8762 6.59064C23.6948 8.6561 23.1801 10.1811 23.0263 10.5605C23.9876 11.6093 24.5678 12.9473 24.5678 14.5855C24.5678 20.3482 21.0602 21.6162 17.7194 21.9872C18.2572 22.4504 18.7369 23.3658 18.7369 24.7655C18.7369 26.7702 18.7187 28.3881 18.7187 28.8799C18.7187 29.2813 18.9894 29.7482 19.75 29.6018C25.7061 27.6137 30 21.9956 30 15.3701C30 7.08519 23.2833 0.369385 14.9984 0.369385" fill="#6F2BFF"/>
</svg>
