<svg width="34" height="33" viewBox="0 0 34 33" fill="none" xmlns="http://www.w3.org/2000/svg">
<path d="M29.75 7.09322V26.2122C29.75 27.4548 28.9723 28.461 28.0118 28.461H23.9541V15.7159L17 22.4651L10.0459 15.7159V28.4624H5.98825C5.75989 28.4624 5.53377 28.4042 5.32281 28.2911C5.11184 28.178 4.92017 28.0122 4.75875 27.8033C4.59732 27.5943 4.4693 27.3462 4.38201 27.0732C4.29472 26.8002 4.24986 26.5077 4.25 26.2122V7.09322C4.25 4.31245 6.70331 2.72481 8.42244 4.39355L10.0459 5.97019L17 12.7166L23.9541 5.96744L25.5776 4.39355C27.2956 2.72619 29.75 4.31245 29.75 7.09322Z" fill="#6F2BFF"/>
</svg>
