<svg width="90" height="93" viewBox="0 0 90 93" fill="none" xmlns="http://www.w3.org/2000/svg">
<rect width="90" height="93" rx="5" fill="#6F2BFF"/>
<g clip-path="url(#clip0_307_22)">
<path d="M84 8H6V85H84V8Z" fill="#3BC0DD"/>
<path d="M46.5194 65.2064C46.0514 64.7731 45.5631 64.3382 45.0966 63.8567C44.7239 64.2175 44.3744 64.5556 44.0046 64.8923C39.3887 69.0594 34.6307 70.7941 31.8102 69.1077C29.0817 67.4938 28.2222 62.7258 29.3142 56.7273C29.4307 56.0772 29.5705 55.4268 29.7338 54.7766C29.244 54.6258 28.7775 54.4868 28.311 54.3237C22.5032 52.2478 18.6797 48.8763 18.6797 45.5036C18.6797 42.253 22.2474 39.0973 27.8196 37.0742C28.4436 36.8568 29.102 36.641 29.7791 36.4477C29.6231 35.8211 29.4998 35.2186 29.3828 34.6359C28.2159 28.547 29.0318 23.6822 31.7837 22.0441C34.6509 20.3094 39.4089 22.165 44.1872 26.5237C44.4665 26.7879 44.7473 27.0778 45.0498 27.3661C45.4929 26.9328 45.9126 26.4996 46.3556 26.1146C50.8796 22.0381 55.3787 20.3336 58.1304 21.9717C60.9978 23.6566 61.8386 28.8594 60.5562 35.2912C60.486 35.7018 60.4002 36.0868 60.3005 36.499C60.8838 36.6681 61.4658 36.8598 62.0024 37.0531C67.6917 39.0762 71.3765 42.2317 71.3297 45.5549C71.3297 48.9503 67.389 52.2991 61.3457 54.3706C61.0196 54.4671 60.6936 54.588 60.366 54.683C60.5064 55.1648 60.5984 55.6463 60.692 56.128C61.9041 62.3666 60.9713 67.4725 58.1508 69.159C57.4101 69.5907 56.5581 69.8104 55.6938 69.7931C53.1089 69.7887 49.8266 68.1416 46.5194 65.2064ZM51.0902 56.3665C49.7508 58.383 48.2788 60.314 46.6832 62.1476C47.1263 62.6005 47.5692 63.0156 48.0123 63.4006C51.8592 66.8204 55.4036 68.0976 57.0603 67.1102C57.5662 66.6885 57.9796 66.173 58.276 65.5937C58.5724 65.0147 58.7458 64.384 58.7856 63.7388C59.1224 61.3486 59.0273 58.92 58.5048 56.5612C58.4346 56.128 58.3488 55.6947 58.2257 55.2371C55.8762 55.7694 53.4923 56.1467 51.0902 56.3665ZM31.5497 57.138C30.5949 62.2713 31.2938 66.0971 32.9537 67.0862C33.5418 67.3239 34.1765 67.4338 34.8133 67.4076C35.4501 67.3815 36.0731 67.2203 36.6384 66.9351C38.8371 66.0409 40.8395 64.7491 42.5382 63.1288C42.8877 62.839 43.2138 62.5023 43.5648 62.1657C41.9341 60.3316 40.4231 58.4007 39.0408 56.3845C36.6477 56.1912 34.2713 55.838 31.9287 55.3278C31.7837 55.9573 31.6667 56.5583 31.5497 57.138ZM45.1217 60.5094C46.1481 59.3287 47.1731 58.0288 48.1995 56.5839C47.1731 56.6322 46.1013 56.6564 45.0281 56.6564C43.9548 56.6564 42.9533 56.6322 41.9502 56.5839C42.9984 58.0031 44.0484 59.3287 45.12 60.5094H45.1217ZM40.2233 37.0018C39.3372 38.326 38.4744 39.7194 37.6586 41.193C36.8427 42.638 36.0986 44.1069 35.42 45.5714C36.1205 47.0163 36.8661 48.4853 37.682 49.98C38.4978 51.4249 39.3606 52.8487 40.2467 54.1939C41.7848 54.2904 43.3947 54.3449 45.0264 54.3449C46.6583 54.3449 48.29 54.2966 49.8531 54.1773C50.6924 52.8531 51.555 51.431 52.3725 49.962C53.19 48.4929 53.9574 46.9996 54.6345 45.5549C53.9574 44.134 53.1884 42.665 52.3725 41.1945C51.5567 39.7239 50.694 38.326 49.8312 37.0032C48.2712 36.8825 46.6598 36.81 45.0281 36.81C43.3962 36.81 41.7864 36.881 40.2233 37.0018ZM32.5293 53.1144C34.1291 53.4681 35.7484 53.7338 37.3794 53.9101C36.8193 52.9952 36.2609 52.0787 35.7242 51.1154C35.211 50.1764 34.6977 49.2373 34.2312 48.2982C33.5558 49.9347 32.9958 51.5517 32.5293 53.1144ZM54.3303 51.0913C53.7936 52.0545 53.2571 52.9694 52.722 53.8617C54.3773 53.6611 56.0199 53.3718 57.6422 52.9952C57.1357 51.3692 56.5441 49.7694 55.8701 48.2015C55.3802 49.1647 54.867 50.128 54.3303 51.0913ZM28.542 39.2892C23.7855 41.0239 20.9183 43.5497 20.9183 45.5275C21.0089 46.1639 21.2285 46.7767 21.5645 47.3306C21.9004 47.8846 22.3462 48.3687 22.8761 48.7556C24.6959 50.2368 26.7829 51.3797 29.0318 52.127C29.4515 52.278 29.8944 52.3928 30.3375 52.5377C31.0537 50.1686 31.9182 47.8437 32.9256 45.5759C31.9161 43.3471 31.0594 41.0562 30.3609 38.7184C29.7317 38.8816 29.1254 39.0718 28.542 39.2892ZM57.1524 45.5275C58.1871 47.7666 59.0729 50.0672 59.8044 52.4153C60.1086 52.3187 60.4112 52.2221 60.6905 52.1256C65.8899 50.3439 69.1145 47.6217 69.1316 45.502C69.1316 43.5271 66.1473 40.9726 61.2738 39.2393C60.7841 39.0718 60.249 38.9026 59.7138 38.7335C59.0076 41.0477 58.152 43.3169 57.1524 45.5275ZM54.3084 39.9882C54.8451 40.9514 55.3584 41.892 55.8233 42.8312C56.4711 41.2963 57.0315 39.7282 57.5018 38.1342C55.9181 37.7617 54.3146 37.4725 52.6986 37.2675C53.2586 38.1568 53.7936 39.0491 54.3069 39.9882H54.3084ZM32.5527 38.1145C33.0207 39.656 33.5792 41.2217 34.2312 42.8341C34.6992 41.895 35.211 40.9559 35.7242 40.0168C36.2375 39.0777 36.7725 38.1628 37.3326 37.2705C35.654 37.4834 34.0691 37.7718 32.5527 38.1145ZM47.8251 27.878C47.4288 28.239 47.0327 28.624 46.6349 29.0103C48.254 30.8214 49.7423 32.7384 51.0887 34.7475C53.4615 34.9693 55.8148 35.3558 58.1304 35.9041C58.224 35.5433 58.2864 35.1809 58.3644 34.8201C59.4564 29.2805 58.7841 25.0411 57.012 23.9827C56.6231 23.7713 56.1818 23.667 55.7358 23.6808C53.8311 23.6718 50.9076 25.1074 47.8251 27.8735V27.878ZM32.9022 24.0432C31.247 25.0304 30.5934 28.9801 31.5731 34.183C31.6901 34.7371 31.8071 35.2897 31.9458 35.8679C34.2646 35.3397 36.6172 34.9615 38.9877 34.7356C40.339 32.7237 41.8351 30.8065 43.4649 28.9983C43.209 28.7326 42.9282 28.4925 42.6725 28.2509C39.4277 25.2812 36.3077 23.714 34.2702 23.714C33.7915 23.6982 33.3175 23.8122 32.9022 24.0432ZM48.1512 34.5438C47.1896 33.1972 46.1522 31.9029 45.0437 30.6665C43.9953 31.8457 42.9455 33.1472 41.9237 34.5438C42.9501 34.4955 43.9751 34.4713 45.0249 34.4713C46.0748 34.4713 47.1263 34.491 48.1527 34.5438H48.1512ZM40.3637 45.6243C40.3418 45.0052 40.4463 44.3881 40.6714 43.8084C40.8964 43.2284 41.2374 42.6972 41.675 42.2453C42.1124 41.793 42.6378 41.4292 43.2209 41.174C43.8043 40.9188 44.4336 40.7775 45.0732 40.7582C46.3639 40.8007 47.5846 41.3369 48.4673 42.2491C49.3502 43.1612 49.8233 44.375 49.7829 45.6243C49.8245 46.8745 49.3519 48.0897 48.4684 49.0029C47.5852 49.9161 46.3635 50.4528 45.0717 50.4949C44.4317 50.4756 43.8018 50.3342 43.2186 50.0788C42.6351 49.8233 42.1096 49.4588 41.6722 49.0061C41.2348 48.5536 40.8941 48.0219 40.6694 47.4415C40.4449 46.8612 40.3408 46.2435 40.3637 45.6243Z" fill="#E6E6E6"/>
<rect x="6" y="8" width="78" height="77" rx="5" fill="#6F2BFF"/>
<path d="M81.0677 11.1948L74.2408 77.4031L43.5534 84.7682L12.9506 77.4135L6.13086 11.1948H81.0677Z" fill="#6F2BFF"/>
<path d="M43.5996 79.1386L68.3965 73.1872L74.2306 16.6091H43.5996V79.1386Z" fill="#6F2BFF"/>
<path d="M30.3268 32.8523H43.5981V24.7307H20.0742L20.2988 26.9096L22.6045 49.2901H43.5981V41.1687H31.1842L30.3268 32.8523Z" fill="#EBEBEB"/>
<path d="M32.4428 53.3508H23.0254L24.3397 66.1027L43.5566 70.721L43.5998 70.7106V62.2609L43.5587 62.2704L33.1107 59.8281L32.4428 53.3508Z" fill="#EBEBEB"/>
<path d="M43.5664 49.2901H55.1185L54.0295 59.823L43.5664 62.2678V70.7171L62.7986 66.1028L62.9397 64.7307L65.1442 43.3495L65.3731 41.1687H43.5664V49.2901Z" fill="white"/>
<path d="M43.5664 32.8324V32.8523H66.2267L66.4149 31.0268L66.8424 26.9096L67.0667 24.7307H43.5664V32.8324Z" fill="white"/>
</g>
<defs>
<clipPath id="clip0_307_22">
<rect x="6" y="8" width="78" height="77" rx="5" fill="white"/>
</clipPath>
</defs>
</svg>
