<svg width="30" height="34" viewBox="0 0 30 34" fill="none" xmlns="http://www.w3.org/2000/svg">
<g clip-path="url(#clip0_301_22)">
<path d="M15.0058 9.36318C10.7469 9.36318 7.31166 12.7698 7.31166 16.9933C7.31166 21.2167 10.7469 24.6233 15.0058 24.6233C19.2648 24.6233 22.7 21.2167 22.7 16.9933C22.7 12.7698 19.2648 9.36318 15.0058 9.36318ZM15.0058 21.9538C12.2536 21.9538 10.0036 19.7292 10.0036 16.9933C10.0036 14.2573 12.2469 12.0327 15.0058 12.0327C17.7648 12.0327 20.0081 14.2573 20.0081 16.9933C20.0081 19.7292 17.7581 21.9538 15.0058 21.9538ZM24.8094 9.05107C24.8094 10.0405 24.0058 10.8308 23.0148 10.8308C22.017 10.8308 21.2201 10.0339 21.2201 9.05107C21.2201 8.06826 22.0237 7.27138 23.0148 7.27138C24.0058 7.27138 24.8094 8.06826 24.8094 9.05107ZM29.9054 10.8573C29.7916 8.47334 29.2424 6.36162 27.4813 4.62178C25.7268 2.88193 23.5974 2.3374 21.1933 2.21787C18.7157 2.07842 11.2893 2.07842 8.81166 2.21787C6.41434 2.33076 4.28487 2.87529 2.52371 4.61514C0.762555 6.35498 0.220145 8.4667 0.0996093 10.8507C-0.0410156 13.3077 -0.0410156 20.6722 0.0996093 23.1292C0.213449 25.5132 0.762555 27.6249 2.52371 29.3647C4.28487 31.1046 6.40764 31.6491 8.81166 31.7686C11.2893 31.9081 18.7157 31.9081 21.1933 31.7686C23.5974 31.6557 25.7268 31.1112 27.4813 29.3647C29.2358 27.6249 29.7849 25.5132 29.9054 23.1292C30.046 20.6722 30.046 13.3144 29.9054 10.8573ZM26.7045 25.7655C26.1822 27.0671 25.171 28.0698 23.8518 28.5944C21.8764 29.3714 17.1889 29.1921 15.0058 29.1921C12.8228 29.1921 8.12862 29.3647 6.15987 28.5944C4.84737 28.0765 3.83621 27.0737 3.3072 25.7655C2.52372 23.8065 2.70452 19.1581 2.70452 16.9933C2.70452 14.8284 2.53041 10.1733 3.3072 8.22099C3.82952 6.91943 4.84068 5.9167 6.15987 5.39209C8.13532 4.61514 12.8228 4.79443 15.0058 4.79443C17.1889 4.79443 21.8831 4.62178 23.8518 5.39209C25.1643 5.91006 26.1755 6.91279 26.7045 8.22099C27.488 10.18 27.3072 14.8284 27.3072 16.9933C27.3072 19.1581 27.488 23.8132 26.7045 25.7655Z" fill="#6F2BFF"/>
</g>
<defs>
<clipPath id="clip0_301_22">
<rect width="30" height="34" fill="white"/>
</clipPath>
</defs>
</svg>
