<svg width="94" height="93" viewBox="0 0 94 93" fill="none" xmlns="http://www.w3.org/2000/svg">
<path d="M94 0H0V93H94V0Z" fill="#6F2BFF"/>
<path d="M26.252 68.3921L32.2359 64.8098C33.3903 66.8354 34.4412 68.5484 36.9604 68.5484C39.3744 68.5484 40.8972 67.6184 40.8972 63.9783V39.2589H48.2461V64.0806C48.2461 71.6099 43.7848 75.038 37.2763 75.038C34.9753 75.1611 32.6906 74.5918 30.7229 73.4052C28.7555 72.2187 27.1974 70.4701 26.2538 68.3903L26.252 68.3921ZM52.2391 67.6109L58.2232 64.1829C58.8885 65.5184 59.9212 66.641 61.2026 67.4218C62.484 68.2026 63.9621 68.6097 65.4669 68.5967C68.5125 68.5967 70.4526 67.0901 70.4526 65.0124C70.4526 62.52 68.4579 61.6367 65.0983 60.1766L63.2673 59.4065C57.9657 57.1745 54.4481 54.3696 54.4481 48.4493C54.4481 42.9957 58.6481 38.8424 65.2093 38.8424C67.3352 38.6898 69.4596 39.1601 71.317 40.1945C73.1746 41.2289 74.6831 42.7814 75.6545 44.6585L69.9319 48.2948C69.5563 47.363 68.9033 46.5661 68.0596 46.0098C67.2158 45.4533 66.2213 45.1637 65.2074 45.1793C64.7655 45.135 64.3189 45.1825 63.8964 45.3184C63.4741 45.4547 63.0851 45.6763 62.754 45.9694C62.4231 46.2626 62.1574 46.6208 61.9742 47.0211C61.7911 47.4215 61.6943 47.8552 61.69 48.2948C61.69 50.4767 63.0548 51.3582 66.2019 52.7087L68.0387 53.4879C74.2859 56.1366 77.8015 58.8372 77.8015 64.9121C77.8015 71.4555 72.6052 75.0398 65.6247 75.0398C58.8003 75.0398 54.3917 71.8202 52.2391 67.6128" fill="white"/>
</svg>
