<svg width="30" height="30" viewBox="0 0 30 30" fill="none" xmlns="http://www.w3.org/2000/svg">
<path d="M27.8571 1.875H2.13616C0.957589 1.875 0 2.72461 0 3.76758V26.2324C0 27.2754 0.957589 28.125 2.13616 28.125H27.8571C29.0357 28.125 30 27.2754 30 26.2324V3.76758C30 2.72461 29.0357 1.875 27.8571 1.875ZM9.06696 24.375H4.62054V11.8477H9.07366V24.375H9.06696ZM6.84375 10.1367C5.41741 10.1367 4.26562 9.12305 4.26562 7.88086C4.26562 6.63867 5.41741 5.625 6.84375 5.625C8.26339 5.625 9.42187 6.63867 9.42187 7.88086C9.42187 9.12891 8.27009 10.1367 6.84375 10.1367ZM25.7344 24.375H21.2879V18.2812C21.2879 16.8281 21.2545 14.959 18.9777 14.959C16.6607 14.959 16.3058 16.541 16.3058 18.1758V24.375H11.8594V11.8477H16.125V13.5586H16.1853C16.7812 12.5742 18.2344 11.5371 20.3973 11.5371C24.8973 11.5371 25.7344 14.1328 25.7344 17.5078V24.375Z" fill="#6F2BFF"/>
</svg>
