<svg width="2302" height="1810" viewBox="0 0 2302 1810" fill="none" xmlns="http://www.w3.org/2000/svg">
<path d="M1129.52 1602.81C1509.99 1602.81 1818.41 1294.38 1818.41 913.915C1818.41 533.447 1509.99 225.018 1129.52 225.018C749.051 225.018 440.621 533.447 440.621 913.915C440.621 1294.38 749.051 1602.81 1129.52 1602.81Z" fill="#6F2BFF" fill-opacity="0.78"/>
<path opacity="0.2" d="M894.926 1155.29C894.926 1177.53 888.328 1199.27 875.968 1217.76C863.608 1236.25 846.041 1250.66 825.49 1259.16C804.938 1267.67 782.326 1269.88 760.514 1265.53C738.703 1261.18 718.672 1250.46 702.956 1234.72C687.241 1218.98 676.547 1198.93 672.228 1177.12C667.909 1155.3 670.159 1132.69 678.693 1112.15C687.227 1091.61 701.662 1074.06 720.171 1061.73C738.68 1049.4 760.431 1042.83 782.672 1042.87C797.428 1042.87 812.038 1045.78 825.668 1051.43C839.298 1057.08 851.68 1065.36 862.106 1075.8C872.532 1086.24 880.797 1098.64 886.429 1112.28C892.06 1125.92 894.948 1140.53 894.926 1155.29Z" fill="white"/>
<path opacity="0.2" d="M735.556 830.923C735.72 844.036 731.981 856.902 724.815 867.885C717.649 878.868 707.379 887.472 695.311 892.604C683.243 897.737 669.922 899.165 657.04 896.707C644.158 894.25 632.298 888.018 622.967 878.803C613.636 869.589 607.255 857.808 604.636 844.958C602.016 832.108 603.277 818.77 608.257 806.638C613.237 794.506 621.711 784.129 632.603 776.826C643.495 769.522 656.313 765.622 669.427 765.621C686.823 765.62 703.519 772.473 715.897 784.697C728.275 796.92 735.338 813.528 735.556 830.923Z" fill="white"/>
<path d="M462.113 1081.55C465.089 1093.45 -127.591 1662.16 25.1669 1783.18C177.924 1904.19 820.697 1593.55 1368.57 1151.15C1916.45 708.75 2416.05 170.627 2279 29.1115C2141.95 -112.404 1457.52 308.01 1457.52 308.01L1540.18 360.086C1540.18 360.086 1953.48 94.5791 2085.74 197.575C2218 300.57 1843.54 703.295 1316.66 1087.83C789.781 1472.37 279.267 1742.34 200.243 1637.03C121.219 1531.72 494.02 1180.25 494.02 1180.25L462.113 1081.55Z" fill="#6F2BFF" fill-opacity="0.78"/>
<path opacity="0.4" d="M462.113 1081.55C465.089 1093.45 -127.591 1662.16 25.1669 1783.18C177.924 1904.19 820.697 1593.55 1368.57 1151.15C1916.45 708.75 2416.05 170.627 2279 29.1115C2141.95 -112.404 1457.52 308.01 1457.52 308.01L1540.18 360.086C1540.18 360.086 1953.48 94.5791 2085.74 197.575C2218 300.57 1843.54 703.295 1316.66 1087.83C789.781 1472.37 279.267 1742.34 200.243 1637.03C121.219 1531.72 494.02 1180.25 494.02 1180.25L462.113 1081.55Z" fill="black"/>
</svg>
