<svg width="52" height="28" viewBox="0 0 52 28" fill="none" xmlns="http://www.w3.org/2000/svg">
<path d="M29.3311 14.0002C29.3311 21.7321 22.765 28 14.6658 28C6.56658 28 0 21.7307 0 14.0002C0 6.26978 6.56608 0 14.6658 0C22.7655 0 29.3311 6.26836 29.3311 14.0002ZM45.4195 14.0002C45.4195 21.2781 42.1364 27.1804 38.0866 27.1804C34.0367 27.1804 30.7537 21.2781 30.7537 14.0002C30.7537 6.72234 34.0362 0.820098 38.0861 0.820098C42.1359 0.820098 45.419 6.72045 45.419 14.0002H45.4195ZM52 14.0002C52 20.5194 50.8455 25.8076 49.421 25.8076C47.9965 25.8076 46.8425 20.5209 46.8425 14.0002C46.8425 7.47961 47.997 2.19291 49.421 2.19291C50.845 2.19291 52 7.47914 52 14.0002Z" fill="black"/>
</svg>
