<svg width="91" height="94" viewBox="0 0 91 94" fill="none" xmlns="http://www.w3.org/2000/svg">
<path d="M91 0H0V94H91V0Z" fill="#6F2BFF"/>
<path d="M47.0246 65.7381C46.5535 65.3355 46.0619 64.9315 45.5923 64.4842C45.2171 64.8194 44.8653 65.1335 44.4931 65.4462C39.8465 69.3175 35.0569 70.929 32.2177 69.3624C29.4711 67.863 28.6058 63.4337 29.7051 57.8611C29.8224 57.2571 29.9631 56.6529 30.1275 56.0489C29.6344 55.9088 29.1649 55.7797 28.6953 55.6282C22.8489 53.6996 19 50.5675 19 47.4343C19 44.4145 22.5914 41.4829 28.2006 39.6035C28.8288 39.4015 29.4915 39.201 30.1731 39.0215C30.0161 38.4393 29.892 37.8797 29.7742 37.3383C28.5995 31.6817 29.4209 27.1624 32.191 25.6407C35.0773 24.0291 39.8668 25.7529 44.6769 29.8022C44.958 30.0476 45.2407 30.3169 45.5452 30.5848C45.9912 30.1822 46.4137 29.7798 46.8597 29.4221C51.4137 25.635 55.9426 24.0516 58.7127 25.5734C61.599 27.1386 62.4455 31.972 61.1546 37.9471C61.0839 38.3285 60.9975 38.6862 60.8971 39.0691C61.4843 39.2262 62.0701 39.4043 62.6104 39.5839C68.3374 41.4633 72.0467 44.3948 71.9996 47.4819C71.9996 50.6363 68.0327 53.7473 61.9493 55.6717C61.621 55.7614 61.2928 55.8737 60.963 55.962C61.1044 56.4095 61.197 56.8568 61.2913 57.3043C62.5114 63.0999 61.5724 67.8433 58.7331 69.41C57.9875 69.811 57.1299 70.0151 56.2598 69.9991C53.6578 69.995 50.3537 68.4648 47.0246 65.7381ZM51.6257 57.5259C50.2774 59.3992 48.7956 61.1931 47.1895 62.8965C47.6355 63.3172 48.0814 63.7029 48.5274 64.0605C52.3998 67.2375 55.9678 68.424 57.6354 67.5067C58.1447 67.115 58.5608 66.636 58.8592 66.0979C59.1576 65.56 59.3321 64.974 59.3722 64.3747C59.7112 62.1542 59.6155 59.898 59.0896 57.7067C59.0189 57.3043 58.9325 56.9017 58.8086 56.4767C56.4435 56.9712 54.0437 57.3217 51.6257 57.5259ZM31.9554 58.2426C30.9943 63.0114 31.6979 66.5656 33.3688 67.4844C33.9607 67.7053 34.5997 67.8073 35.2407 67.7829C35.8818 67.7588 36.5089 67.6089 37.0779 67.3441C39.2912 66.5133 41.3069 65.3132 43.017 63.808C43.3687 63.5387 43.697 63.226 44.0503 62.9133C42.4088 61.2094 40.8878 59.4157 39.4963 57.5426C37.0873 57.363 34.6952 57.0349 32.337 56.5609C32.191 57.1458 32.0732 57.704 31.9554 58.2426ZM45.6176 61.3746C46.6508 60.2778 47.6826 59.0702 48.7158 57.7278C47.6826 57.7727 46.6037 57.7952 45.5233 57.7952C44.4429 57.7952 43.4348 57.7727 42.425 57.7278C43.4802 59.0463 44.5371 60.2778 45.6159 61.3746H45.6176ZM40.6866 39.5362C39.7946 40.7664 38.9262 42.0609 38.1049 43.4298C37.2836 44.7722 36.5346 46.1368 35.8515 47.4974C36.5566 48.8396 37.3072 50.2043 38.1285 51.5928C38.9497 52.9351 39.8182 54.2579 40.7102 55.5076C42.2585 55.5972 43.8791 55.6478 45.5217 55.6478C47.1644 55.6478 48.8069 55.603 50.3804 55.4922C51.2253 54.262 52.0936 52.9409 52.9165 51.5761C53.7394 50.2114 54.512 48.8241 55.1935 47.4819C54.512 46.162 53.7378 44.7973 52.9165 43.4312C52.0953 42.065 51.2268 40.7664 50.3584 39.5375C48.788 39.4254 47.1659 39.3581 45.5233 39.3581C43.8806 39.3581 42.2601 39.424 40.6866 39.5362ZM32.9416 54.5047C34.552 54.8333 36.182 55.0801 37.8238 55.2439C37.26 54.394 36.6979 53.5425 36.1577 52.6477C35.641 51.7753 35.1244 50.9029 34.6548 50.0305C33.9749 51.5508 33.4111 53.053 32.9416 54.5047ZM54.8873 52.6252C54.3471 53.5201 53.807 54.37 53.2683 55.199C54.9346 55.0126 56.5882 54.7438 58.2212 54.394C57.7113 52.8834 57.1158 51.3972 56.4373 49.9406C55.9442 50.8355 55.4275 51.7304 54.8873 52.6252ZM28.9278 41.6612C24.1397 43.2727 21.2535 45.6192 21.2535 47.4566C21.3447 48.0478 21.5658 48.617 21.9039 49.1316C22.2421 49.6462 22.6909 50.096 23.2243 50.4554C25.0562 51.8314 27.157 52.8932 29.4209 53.5874C29.8433 53.7277 30.2892 53.8343 30.7352 53.9689C31.4561 51.768 32.3264 49.6083 33.3405 47.5015C32.3243 45.431 31.4619 43.3027 30.7588 41.131C30.1254 41.2825 29.5151 41.4592 28.9278 41.6612ZM57.7281 47.4566C58.7697 49.5366 59.6614 51.6738 60.3977 53.8553C60.7039 53.7655 61.0086 53.6757 61.2897 53.5861C66.5237 51.931 69.7696 49.402 69.7869 47.4329C69.7869 45.5982 66.7828 43.2251 61.8769 41.6149C61.3839 41.4592 60.8453 41.302 60.3066 41.145C59.5956 43.2949 58.7343 45.4029 57.7281 47.4566ZM54.8653 42.3106C55.4055 43.2054 55.9222 44.0792 56.3902 44.9517C57.0423 43.5258 57.6065 42.0691 58.0799 40.5882C56.4856 40.2422 54.8715 39.9735 53.2447 39.783C53.8085 40.6092 54.3471 41.4382 54.8638 42.3106H54.8653ZM32.9651 40.5699C33.4362 42.002 33.9985 43.4565 34.6548 44.9544C35.1259 44.0819 35.641 43.2095 36.1577 42.3371C36.6744 41.4648 37.2129 40.6148 37.7767 39.7859C36.087 39.9836 34.4916 40.2515 32.9651 40.5699ZM48.3389 31.0603C47.94 31.3956 47.5412 31.7533 47.1408 32.1121C48.7707 33.7947 50.2688 35.5755 51.6242 37.442C54.0128 37.6481 56.3817 38.0071 58.7127 38.5165C58.8069 38.1813 58.8697 37.8446 58.9482 37.5094C60.0475 32.3632 59.3707 28.4248 57.5868 27.4416C57.1953 27.2452 56.751 27.1483 56.3022 27.1611C54.3848 27.1527 51.4419 28.4865 48.3389 31.0561V31.0603ZM33.3169 27.4978C31.6508 28.4149 30.9928 32.0841 31.979 36.9176C32.0968 37.4323 32.2146 37.9457 32.3542 38.4829C34.6884 37.9921 37.0566 37.6408 39.4428 37.4309C40.8031 35.5619 42.3092 33.7809 43.9498 32.1011C43.6922 31.8542 43.4095 31.6312 43.1521 31.4067C39.8858 28.6479 36.745 27.1919 34.6941 27.1919C34.2121 27.1773 33.735 27.2832 33.3169 27.4978ZM48.6671 37.2528C47.6992 36.0018 46.6549 34.7993 45.539 33.6508C44.4837 34.7463 43.4269 35.9554 42.3983 37.2528C43.4315 37.2079 44.4633 37.1854 45.5201 37.1854C46.577 37.1854 47.6355 37.2037 48.6687 37.2528H48.6671ZM40.828 47.5464C40.806 46.9713 40.9111 46.3981 41.1377 45.8595C41.3642 45.3207 41.7075 44.8272 42.1479 44.4074C42.5883 43.9872 43.1171 43.6492 43.7042 43.4121C44.2914 43.1751 44.9249 43.0438 45.5688 43.0259C46.868 43.0654 48.0968 43.5635 48.9854 44.4109C49.8741 45.2583 50.3504 46.3859 50.3097 47.5464C50.3516 48.7079 49.8759 49.8368 48.9865 50.6852C48.0974 51.5335 46.8676 52.0321 45.5672 52.0712C44.9229 52.0533 44.2889 51.9219 43.7018 51.6846C43.1145 51.4473 42.5854 51.1086 42.1452 50.6881C41.7048 50.2678 41.3619 49.7738 41.1357 49.2346C40.9097 48.6956 40.805 48.1217 40.828 47.5464Z" fill="#E6E6E6"/>
</svg>
