<svg width="30" height="30" viewBox="0 0 30 30" fill="none" xmlns="http://www.w3.org/2000/svg">
<g clip-path="url(#clip0_301_32)">
<path d="M30 3.65304C28.8766 4.26262 27.685 4.66275 26.4649 4.84012C27.7358 3.90711 28.7116 2.42964 29.1711 0.66926C27.963 1.54742 26.6412 2.16614 25.2628 2.49869C24.14 1.03357 22.5405 0.11792 20.7702 0.11792C17.3711 0.11792 14.6152 3.49342 14.6152 7.65667C14.6152 8.24763 14.6696 8.82294 14.7745 9.37486C9.6593 9.06036 5.12414 6.05907 2.0884 1.49792C1.55871 2.61136 1.2552 3.90653 1.2552 5.28797C1.2552 7.90356 2.34188 10.211 3.99328 11.563C3.01588 11.5255 2.05998 11.2021 1.20539 10.6199C1.20504 10.6515 1.20504 10.6831 1.20504 10.7148C1.20504 14.3675 3.3266 17.4146 6.14215 18.1072C5.2358 18.4091 4.28511 18.4533 3.3627 18.2363C4.14586 21.2315 6.41895 23.411 9.11215 23.472C7.0057 25.4939 4.35176 26.6992 1.46824 26.6992C0.971367 26.6992 0.481523 26.6635 0 26.5938C2.72379 28.7329 5.95898 29.981 9.43477 29.981C20.7559 29.981 26.9466 18.4933 26.9466 8.53098C26.9466 8.204 26.9407 7.87888 26.9288 7.55562C28.1337 6.48866 29.1737 5.16713 30 3.65304Z" fill="#6F2BFF"/>
</g>
<defs>
<clipPath id="clip0_301_32">
<rect width="30" height="30" fill="white"/>
</clipPath>
</defs>
</svg>
