<svg width="30" height="30" viewBox="0 0 30 30" fill="none" xmlns="http://www.w3.org/2000/svg">
<g clip-path="url(#clip0_409_236)">
<path d="M30 3.65328C28.8766 4.26287 27.685 4.663 26.4649 4.84036C27.7358 3.90735 28.7116 2.42989 29.1711 0.669504C27.963 1.54766 26.6412 2.16638 25.2628 2.49893C24.14 1.03381 22.5405 0.118164 20.7702 0.118164C17.3711 0.118164 14.6152 3.49367 14.6152 7.65692C14.6152 8.24788 14.6696 8.82319 14.7745 9.3751C9.6593 9.0606 5.12414 6.05931 2.0884 1.49816C1.55871 2.61161 1.2552 3.90678 1.2552 5.28821C1.2552 7.90381 2.34188 10.2112 3.99328 11.5632C3.01588 11.5257 2.05998 11.2024 1.20539 10.6202C1.20504 10.6518 1.20504 10.6833 1.20504 10.7151C1.20504 14.3677 3.3266 17.4148 6.14215 18.1074C5.2358 18.4093 4.28511 18.4535 3.3627 18.2366C4.14586 21.2317 6.41895 23.4112 9.11215 23.4722C7.0057 25.4941 4.35176 26.6995 1.46824 26.6995C0.971367 26.6995 0.481523 26.6637 0 26.5941C2.72379 28.7331 5.95898 29.9812 9.43477 29.9812C20.7559 29.9812 26.9466 18.4935 26.9466 8.53123C26.9466 8.20424 26.9407 7.87912 26.9288 7.55587C28.1337 6.48891 29.1737 5.16737 30 3.65328Z" fill="black"/>
</g>
<defs>
<clipPath id="clip0_409_236">
<rect width="30" height="30" fill="white"/>
</clipPath>
</defs>
</svg>
