<svg width="93" height="93" viewBox="0 0 93 93" fill="none" xmlns="http://www.w3.org/2000/svg">
<path fill-rule="evenodd" clip-rule="evenodd" d="M0 46.5L0 93H46.5L93 93V46.5L93 0L46.5 0H0L0 46.5Z" fill="#6F2BFF"/>
<path fill-rule="evenodd" clip-rule="evenodd" d="M20.5667 46.8084L20.5372 50.617L26.5895 50.617H32.6419V67.8146V85.0122H36.9229H41.2038V67.8146V50.617H47.2562H53.3086V46.8822C53.3086 44.8155 53.2643 43.0884 53.2053 43.0441C53.161 42.9851 45.7948 42.9555 36.8638 42.9703L20.611 43.0146L20.5667 46.8084Z" fill="white"/>
<path fill-rule="evenodd" clip-rule="evenodd" d="M75.0421 42.9066C77.404 43.4971 79.205 44.5451 80.8583 46.2575C81.7145 47.1728 82.984 48.8409 83.0874 49.2394C83.1169 49.3575 79.0721 52.0737 76.6217 53.5942C76.5331 53.6532 76.1788 53.2694 75.7802 52.679C74.5845 50.9371 73.3298 50.1842 71.4107 50.0513C68.5912 49.8594 66.7755 51.3356 66.7902 53.8009C66.7902 54.5242 66.8936 54.9523 67.1888 55.5428C67.8088 56.8271 68.9602 57.5947 72.5769 59.1594C79.2345 62.0232 82.0836 63.9128 83.855 66.5994C85.8331 69.5961 86.2759 74.379 84.9326 77.9366C83.4564 81.8042 79.7955 84.4318 74.6436 85.3028C73.0493 85.5832 69.2702 85.539 67.5578 85.229C63.8231 84.5647 60.2802 82.7194 58.0955 80.2985C57.2393 79.3537 55.5712 76.8885 55.6745 76.7113C55.7188 76.6523 56.1026 76.4161 56.5307 76.1652C56.944 75.929 58.5088 75.0285 59.985 74.1723L62.6569 72.6223L63.2178 73.449C64.0002 74.6447 65.7126 76.2832 66.7459 76.8294C69.7131 78.3942 73.7874 78.1728 75.795 76.3718C76.6512 75.5894 77.0055 74.7775 77.0055 73.5818C77.0055 72.5042 76.8726 72.0318 76.3117 71.2199C75.5883 70.1866 74.1121 69.3156 69.9198 67.4999C65.1221 65.4332 63.0555 64.149 61.1659 62.1118C60.0736 60.9309 59.0402 59.0413 58.6121 57.4618C58.2578 56.148 58.1693 52.8561 58.4497 51.5275C59.4388 46.8923 62.9374 43.6594 67.9859 42.6999C69.6245 42.3899 73.4331 42.508 75.0421 42.9066Z" fill="white"/>
</svg>
